<?xml version="1.0" standalone="no"?>
<!DOCTYPE svg PUBLIC "-//W3C//DTD SVG 20010904//EN"
 "http://www.w3.org/TR/2001/REC-SVG-20010904/DTD/svg10.dtd">
<svg version="1.0" xmlns="http://www.w3.org/2000/svg"
 width="1024.000000pt" height="1024.000000pt" viewBox="0 0 1024.000000 1024.000000"
 preserveAspectRatio="xMidYMid meet">

<g transform="translate(0.000000,1024.000000) scale(0.100000,-0.100000)"
fill="#000000" stroke="none">
<path d="M4875 9553 c-1833 -108 -3399 -1311 -3975 -3053 -321 -972 -287
-2054 97 -3023 440 -1116 1338 -2017 2459 -2472 1348 -547 2890 -393 4107 409
254 168 454 332 693 571 240 239 399 433 570 692 582 884 829 1943 698 2993
-138 1103 -677 2102 -1529 2831 -717 614 -1627 983 -2580 1047 -130 9 -427 12
-540 5z m-1123 -1893 c225 -47 426 -144 663 -319 28 -21 104 -77 170 -126 403
-298 874 -704 1460 -1259 347 -328 485 -473 537 -561 177 -299 168 -676 -27
-1133 -196 -456 -582 -768 -1101 -888 -100 -23 -149 -28 -304 -32 -205 -5
-340 10 -509 54 -627 167 -1079 689 -1141 1319 -19 190 6 398 67 550 122 307
308 516 602 679 92 51 137 58 183 28 57 -36 558 -458 563 -474 12 -34 -7 -57
-93 -115 -110 -74 -252 -209 -297 -282 -45 -75 -65 -155 -65 -261 0 -155 68
-300 195 -419 165 -154 382 -226 565 -187 129 27 211 75 325 190 149 150 201
264 193 421 -8 158 -88 278 -306 462 -117 98 -766 645 -952 803 -42 36 -132
112 -200 170 -446 379 -484 408 -605 451 -76 27 -234 37 -313 20 -80 -18 -206
-81 -279 -140 -118 -97 -206 -272 -219 -434 -3 -39 -6 -826 -7 -1747 -2 -1624
-3 -1677 -21 -1734 -56 -169 -179 -187 -431 -62 -268 133 -418 339 -454 623
-15 118 -24 2072 -12 2593 12 492 22 590 81 770 92 280 279 550 511 736 211
169 486 284 769 324 102 14 341 4 452 -20z m3159 -71 c131 -13 263 -41 393
-84 93 -31 261 -101 296 -125 8 -6 26 -16 40 -23 45 -22 114 -70 191 -134 265
-218 413 -504 458 -888 7 -59 11 -600 11 -1560 1 -1261 -1 -1481 -13 -1545
-32 -161 -78 -252 -177 -350 -201 -202 -515 -361 -610 -310 -11 6 -24 27 -30
48 -6 25 -10 578 -10 1687 0 913 -5 1707 -10 1777 -22 300 -117 494 -305 623
-89 60 -174 86 -310 92 -95 4 -123 1 -205 -20 -184 -48 -283 -110 -540 -341
-75 -67 -115 -96 -135 -96 -20 0 -106 71 -443 364 -131 113 -172 155 -172 172
0 17 26 46 96 106 53 46 134 115 179 154 247 213 564 375 841 430 163 32 299
39 455 23z"/>
</g>
</svg>
