<?xml version="1.0" standalone="no"?>
<!DOCTYPE svg PUBLIC "-//W3C//DTD SVG 20010904//EN"
 "http://www.w3.org/TR/2001/REC-SVG-20010904/DTD/svg10.dtd">
<svg version="1.0" xmlns="http://www.w3.org/2000/svg"
 width="29.000000pt" height="29.000000pt" viewBox="0 0 29.000000 29.000000"
 preserveAspectRatio="xMidYMid meet">

<g transform="translate(0.000000,29.000000) scale(0.100000,-0.100000)"
fill="#000000" stroke="none">
<path d="M150 224 c0 -13 48 -59 55 -52 3 2 -9 17 -25 33 -17 16 -30 24 -30
19z"/>
<path d="M130 204 c0 -6 16 -25 35 -44 34 -33 36 -34 53 -16 16 18 16 19 -2
12 -14 -5 -29 2 -53 26 -18 17 -33 27 -33 22z"/>
<path d="M85 160 c-30 -32 -25 -42 7 -13 18 16 21 14 61 -25 l43 -42 29 30
c30 32 25 42 -7 13 -18 -16 -21 -14 -61 25 l-43 42 -29 -30z"/>
<path d="M89 123 c-12 -15 -12 -16 5 -10 14 6 28 -1 53 -25 18 -17 33 -27 33
-22 0 11 -62 74 -72 74 -3 0 -12 -8 -19 -17z"/>
<path d="M125 70 c16 -16 31 -28 33 -25 7 7 -39 55 -52 55 -5 0 3 -13 19 -30z"/>
</g>
</svg>
